Coordinates
version=1
nRows=10
nColumns=40
inDegrees=yes

Units are S.I. units (second, meters, Newtons, ...)
Angles are in degrees.

endheader
time	pelvis_tilt	pelvis_list	pelvis_rotation	pelvis_tx	pelvis_ty	pelvis_tz	hip_flexion_r	hip_adduction_r	hip_rotation_r	knee_angle_r	knee_angle_r_beta	ankle_angle_r	subtalar_angle_r	mtp_angle_r	hip_flexion_l	hip_adduction_l	hip_rotation_l	knee_angle_l	knee_angle_l_beta	ankle_angle_l	subtalar_angle_l	mtp_angle_l	lumbar_extension	lumbar_bending	lumbar_rotation	arm_flex_r	arm_add_r	arm_rot_r	elbow_flex_r	pro_sup_r	wrist_flex_r	wrist_dev_r	arm_flex_l	arm_add_l	arm_rot_l	elbow_flex_l	pro_sup_l	wrist_flex_l	wrist_dev_l
     17.05000000	     -4.64388458	     -5.61081608	     -6.23480865	      0.96997577	      0.92126565	      0.42999112	     19.99052251	     -5.36217881	      2.02833366	     54.40440052	     54.40440052	      3.00373168	      0.21358881	    -13.91224122	     21.05356926	     -7.19836871	     -4.62920953	     31.54791814	     31.54791814	     16.82266480	    -16.92845929	      7.82776898	    -10.07002457	      7.09396905	      3.32493050	     12.42364565	    -13.20941944	     -5.15321105	     27.35554471	     45.60871281	      0.00000000	      0.00000000	     25.00825783	    -15.04605190	      6.23441806	     42.03915701	     45.26667195	      0.00000000	      0.00000000
     17.07128571	     -4.70379396	     -5.69169725	     -6.66451283	      0.96827952	      0.91980263	      0.42813484	     21.99880803	     -4.87865052	      2.99253984	     56.96560218	     56.96560218	      2.34563461	     -1.44687915	    -13.31483323	     21.21219487	     -7.23505931	     -4.78908505	     32.23179021	     32.23179021	     17.27268396	    -17.25770982	      7.62780337	    -10.17158337	      7.13846205	      2.94214449	      9.18060712	    -13.20434165	     -5.11477732	     26.18244936	     45.63582919	      0.00000000	      0.00000000	     26.50694984	    -15.74250935	      5.55177070	     43.45369854	     45.37244265	      0.00000000	      0.00000000
     17.09257143	     -4.71292019	     -5.87387189	     -7.14364056	      0.96665536	      0.91880326	      0.42644015	     23.92670903	     -4.24902658	      3.83368968	     59.38151188	     59.38151188	      3.36834766	     -2.07758590	     -7.95397304	     21.21960733	     -7.41348816	     -5.04203372	     32.83090619	     32.83090619	     17.97633995	    -17.32769359	      8.02926242	    -10.48538555	      7.28985574	      2.57864709	      5.35598662	    -13.45153215	     -4.72745796	     26.16994159	     45.65139938	      0.00000000	      0.00000000	     27.15463110	    -16.13867833	      1.88170116	     47.27299230	     45.85407859	      0.00000000	      0.00000000
     17.11385714	     -4.77908370	     -5.93991927	     -7.62192143	      0.96498938	      0.91813237	      0.42491798	     25.61004720	     -3.74543021	      4.50504849	     60.81125750	     60.81125750	      3.07621201	     -3.30035370	     -7.36524870	     21.14408895	     -7.47950225	     -5.37525965	     33.13287371	     33.13287371	     18.34733935	    -17.45963492	      7.90330662	    -10.63004904	      7.32224746	      2.51698041	      1.90977980	    -13.52078174	     -4.64974023	     24.82599005	     45.68143236	      0.00000000	      0.00000000	     28.84300843	    -16.65943765	      1.10110238	     48.91596517	     45.96861397	      0.00000000	      0.00000000
     17.13514286	     -4.80929095	     -6.05770321	     -8.13168646	      0.96344268	      0.91823069	      0.42373547	     27.03943625	     -3.23843513	      4.94750499	     61.57792997	     61.57792997	      3.93104242	     -3.74695483	     -4.41022709	     20.82003002	     -7.62899356	     -5.82678274	     33.09694509	     33.09694509	     18.65316926	    -17.41616916	      7.87087399	    -10.93517897	      7.43246198	      2.25008243	     -1.75818246	    -13.65152611	     -4.69387099	     24.93883427	     45.70519585	      0.00000000	      0.00000000	     29.58666185	    -17.00357010	     -2.07566387	     52.53401116	     46.34290541	      0.00000000	      0.00000000
     17.15642857	     -4.93708188	     -6.05585251	     -8.74082700	      0.96191887	      0.91898037	      0.42305252	     28.26092872	     -2.83620016	      5.29634886	     61.26045055	     61.26045055	      4.07846101	     -4.46745190	     -4.18856531	     20.34923377	     -7.68583922	     -6.42399140	     32.61045433	     32.61045433	     18.81695137	    -17.36143504	      7.86151436	    -10.98625889	      7.38133579	      2.40693180	     -4.95448748	    -13.67038943	     -4.66367673	     23.78429478	     45.73400284	      0.00000000	      0.00000000	     31.11696554	    -17.45515476	     -2.89774701	     54.31914111	     46.45520400	      0.00000000	      0.00000000
     17.17771429	     -5.12856630	     -6.13443793	     -9.28959271	      0.96043856	      0.92040615	      0.42269242	     29.15513753	     -2.45551485	      5.33124628	     59.90768786	     59.90768786	      4.54440879	     -4.66876307	     -4.54922293	     19.79583882	     -7.84779409	     -7.03603109	     31.81690520	     31.81690520	     18.62331356	    -17.15767064	      7.51024735	    -11.10573491	      7.51041187	      2.25426275	     -8.14628235	    -13.68084492	     -4.99448046	     24.00523298	     45.75346561	      0.00000000	      0.00000000	     31.84467090	    -17.99414275	     -5.03908616	     57.52545316	     46.69475790	      0.00000000	      0.00000000
     17.19900000	     -5.33674231	     -6.13710964	     -9.87795358	      0.95905404	      0.92256089	      0.42288895	     29.69212595	     -2.18513277	      5.21349900	     57.46559137	     57.46559137	      4.82777577	     -4.83306459	     -6.08830393	     18.97371068	     -7.93747901	     -7.80357915	     30.48658805	     30.48658805	     18.13613340	    -16.94909451	      7.05191773	    -11.13425383	      7.51078407	      2.00112919	    -10.97041175	    -13.60526571	     -5.35086833	     24.48286113	     45.77972424	      0.00000000	      0.00000000	     32.41341766	    -18.63479643	     -7.07283702	     60.56277613	     46.91901733	      0.00000000	      0.00000000
     17.22028571	     -5.63084079	     -6.14556805	    -10.49884895	      0.95772493	      0.92514589	      0.42354373	     29.90712867	     -1.94584303	      4.92586693	     53.95721896	     53.95721896	      4.98343485	     -4.57647876	     -8.19559142	     18.08902028	     -8.04077100	     -8.59968429	     28.88176160	     28.88176160	     17.56653826	    -16.66857128	      6.63120249	    -11.02963513	      7.52262322	      1.93742147	    -13.57222443	    -13.48477124	     -5.66737977	     24.98379297	     45.80318294	      0.00000000	      0.00000000	     33.03169441	    -19.25081299	     -8.51990978	     63.39202836	     47.09147237	      0.00000000	      0.00000000
     17.24157143	     -5.93673983	     -6.16902237	    -11.12782242	      0.95649419	      0.92796578	      0.42470222	     29.72367576	     -1.72651851	      4.45817072	     49.52950901	     49.52950901	      5.11423628	     -3.79837408	    -10.41069100	     17.09530678	     -8.15086477	     -9.39390242	     27.06370884	     27.06370884	     16.87992457	    -16.36310171	      6.21212656	    -10.93120166	      7.53019574	      1.96485653	    -15.92530914	    -13.35544937	     -5.93441136	     25.70708808	     45.82810659	      0.00000000	      0.00000000	     33.73278413	    -19.92688116	     -9.76823245	     66.08415971	     47.25329616	      0.00000000	      0.00000000
